<svg width="1045" height="208" xmlns="http://www.w3.org/2000/svg" xmlns:xlink="http://www.w3.org/1999/xlink" overflow="hidden"><defs><clipPath id="clip0"><rect x="193" y="244" width="1045" height="208"/></clipPath></defs><g clip-path="url(#clip0)" transform="translate(-193 -244)"><rect x="420" y="259" width="209" height="49" stroke="#000000" stroke-width="2" stroke-miterlimit="8" fill="none"/><text font-family="Times New Roman,Times New Roman_MSFontService,sans-serif" font-weight="400" font-size="24" transform="translate(457.615 292)">preprocessing</text><rect x="418" y="397" width="208" height="48" stroke="#000000" stroke-width="2" stroke-miterlimit="8" fill="none"/><text font-family="Times New Roman,Times New Roman_MSFontService,sans-serif" font-weight="400" font-size="24" transform="translate(455.361 429)">preprocessing</text><rect x="703" y="398" width="259" height="49" stroke="#000000" stroke-width="2" stroke-miterlimit="8" fill="none"/><text font-family="Times New Roman,Times New Roman_MSFontService,sans-serif" font-weight="400" font-size="24" transform="translate(728.117 431)">Positioning algorithm</text><path d="M959 255.5C959 260.747 901.021 265 829.5 265 757.979 265 700 260.747 700 255.5 700 250.253 757.979 246 829.5 246 901.021 246 959 250.253 959 255.5L959 312.5C959 317.747 901.021 322 829.5 322 757.979 322 700 317.747 700 312.5L700 255.5" stroke="#000000" stroke-width="2" stroke-miterlimit="8" fill="none" fill-rule="evenodd"/><text font-family="Times New Roman,Times New Roman_MSFontService,sans-serif" font-weight="400" font-size="24" transform="translate(731.413 297)">Fingerprint database</text><path d="M640 273.75 672.5 273.75 672.5 264 692 283.5 672.5 303 672.5 293.25 640 293.25Z" stroke="#000000" stroke-width="2" stroke-miterlimit="8" fill="none" fill-rule="evenodd"/><path d="M642 412.75 674.5 412.75 674.5 403 694 422.5 674.5 442 674.5 432.25 642 432.25Z" stroke="#000000" stroke-width="2" stroke-miterlimit="8" fill="none" fill-rule="evenodd"/><path d="M839.25 337 839.25 369.5 849 369.5 829.5 389 810 369.5 819.75 369.5 819.75 337Z" stroke="#000000" stroke-width="2" stroke-miterlimit="8" fill="none" fill-rule="evenodd"/><path d="M287 353 1191.56 353" stroke="#000000" stroke-width="2" stroke-miterlimit="8" stroke-dasharray="16 6" fill="none" fill-rule="evenodd"/><text font-family="Times New Roman,Times New Roman_MSFontService,sans-serif" font-weight="400" font-size="24" transform="translate(1116.98 346)">Offline</text><text font-family="Times New Roman,Times New Roman_MSFontService,sans-serif" font-weight="400" font-size="24" transform="translate(1118.33 375)">Online</text><path d="M359 274.75 391.5 274.75 391.5 265 411 284.5 391.5 304 391.5 294.25 359 294.25Z" stroke="#000000" stroke-width="2" stroke-miterlimit="8" fill="none" fill-rule="evenodd"/><path d="M356 407.75 388.5 407.75 388.5 398 408 417.5 388.5 437 388.5 427.25 356 427.25Z" stroke="#000000" stroke-width="2" stroke-miterlimit="8" fill="none" fill-rule="evenodd"/><text font-family="Times New Roman,Times New Roman_MSFontService,sans-serif" font-weight="400" font-size="24" transform="translate(215.121 292)">M</text><text font-family="Times New Roman,Times New Roman_MSFontService,sans-serif" font-weight="400" font-size="24" transform="translate(236.454 292)">easurements</text><text font-family="Times New Roman,Times New Roman_MSFontService,sans-serif" font-weight="400" font-size="24" transform="translate(208.248 424)">M</text><text font-family="Times New Roman,Times New Roman_MSFontService,sans-serif" font-weight="400" font-size="24" transform="translate(229.581 424)">easurements</text><path d="M986 410.75 1018.5 410.75 1018.5 401 1038 420.5 1018.5 440 1018.5 430.25 986 430.25Z" stroke="#000000" stroke-width="2" stroke-miterlimit="8" fill="none" fill-rule="evenodd"/><text font-family="Times New Roman,Times New Roman_MSFontService,sans-serif" font-weight="400" font-size="24" transform="translate(1070.28 429)">L</text><text font-family="Times New Roman,Times New Roman_MSFontService,sans-serif" font-weight="400" font-size="24" transform="translate(1084.94 429)">ocation</text></g></svg>