<svg width="849" height="256" xmlns="http://www.w3.org/2000/svg" xmlns:xlink="http://www.w3.org/1999/xlink" overflow="hidden"><defs><clipPath id="clip0"><rect x="158" y="213" width="849" height="256"/></clipPath></defs><g clip-path="url(#clip0)" transform="translate(-158 -213)"><rect x="345.5" y="319.5" width="138" height="47" stroke="#000000" stroke-width="3" stroke-miterlimit="8" stroke-dasharray="24 9" fill="#548235"/><text fill="#FFFFFF" font-family="Times New Roman,Times New Roman_MSFontService,sans-serif" font-weight="400" font-size="24" transform="translate(365.935 351)">Regressor</text><rect x="649.5" y="319.5" width="169" height="47" stroke="#000000" stroke-width="3" stroke-miterlimit="8" fill="#548235"/><text fill="#FFFFFF" font-family="Times New Roman,Times New Roman_MSFontService,sans-serif" font-weight="400" font-size="24" transform="translate(659.402 351)">P</text><text fill="#FFFFFF" font-family="Times New Roman,Times New Roman_MSFontService,sans-serif" font-weight="400" font-size="24" transform="translate(672.736 351)">oint</text><text fill="#FFFFFF" font-family="Times New Roman,Times New Roman_MSFontService,sans-serif" font-weight="400" font-size="24" transform="translate(716.069 351)">searching</text><path d="M674.5 405.334C674.5 399.903 678.903 395.5 684.334 395.5L782.666 395.5C788.097 395.5 792.5 399.903 792.5 405.334L792.5 444.666C792.5 450.097 788.097 454.5 782.666 454.5L684.334 454.5C678.903 454.5 674.5 450.097 674.5 444.666Z" stroke="#2F528F" stroke-width="1.33333" stroke-miterlimit="8" fill="#4472C4" fill-rule="evenodd"/><text fill="#FFFFFF" font-family="Times New Roman,Times New Roman_MSFontService,sans-serif" font-weight="400" font-size="24" transform="translate(719.42 419)">Rx</text><text fill="#FFFFFF" font-family="Times New Roman,Times New Roman_MSFontService,sans-serif" font-weight="400" font-size="24" transform="translate(694.753 448)">position</text><path d="M510.5 342.5C510.5 328.141 535.348 316.5 566 316.5 596.652 316.5 621.5 328.141 621.5 342.5 621.5 356.859 596.652 368.5 566 368.5 535.348 368.5 510.5 356.859 510.5 342.5Z" stroke="#2F528F" stroke-width="1.33333" stroke-miterlimit="8" fill="#ED7D31" fill-rule="evenodd"/><text fill="#FFFFFF" font-family="Times New Roman,Times New Roman_MSFontService,sans-serif" font-weight="400" font-size="16" transform="translate(537.562 347)">Distance</text><path d="M0.00993323-0.666593 20.976-0.354166 20.9562 0.979019-0.00993323 0.666593ZM19.6925-3.707 27.632 0.411759 19.5733 4.29212Z" transform="matrix(1 0 0 -1 483.5 342.912)"/><path d="M857.5 343C857.5 328.917 883.468 317.5 915.5 317.5 947.533 317.5 973.5 328.917 973.5 343 973.5 357.083 947.533 368.5 915.5 368.5 883.468 368.5 857.5 357.083 857.5 343Z" stroke="#2F528F" stroke-width="1.33333" stroke-miterlimit="8" fill="#ED7D31" fill-rule="evenodd"/><text fill="#FFFFFF" font-family="Times New Roman,Times New Roman_MSFontService,sans-serif" font-weight="400" font-size="15" transform="translate(890.679 339)">Latitude</text><text fill="#FFFFFF" font-family="Times New Roman,Times New Roman_MSFontService,sans-serif" font-weight="400" font-size="15" transform="translate(884.932 357)">Longitude</text><path d="M621.508 341.833 642.997 342.095 642.98 343.429 621.492 343.167ZM641.704 338.746 649.655 342.843 641.606 346.745Z"/><path d="M0.666627-0.00725727 0.90996 22.3444-0.423294 22.3589-0.666627 0.00725727ZM4.22858 20.9749 0.315906 29.018-3.77094 21.062Z" transform="matrix(1 0 0 -1 733.5 395.518)"/><path d="M818.504 341.833 850.627 342.004 850.62 343.337 818.497 343.167ZM849.312 338.663 857.29 342.706 849.269 346.663Z"/><text font-family="Times New Roman,Times New Roman_MSFontService,sans-serif" font-weight="400" font-size="24" transform="translate(795.763 269)">Offline t</text><text font-family="Times New Roman,Times New Roman_MSFontService,sans-serif" font-weight="400" font-size="24" transform="translate(877.33 269)">raining</text><path d="M0 0 799.203 3.89197" stroke="#000000" stroke-width="1.33333" stroke-miterlimit="8" stroke-dasharray="5.33333 4" fill="none" fill-rule="evenodd" transform="matrix(1 0 0 -1 158.5 284.392)"/><text font-family="Times New Roman,Times New Roman_MSFontService,sans-serif" font-weight="400" font-size="24" transform="translate(809.898 309)">Online t</text><text font-family="Times New Roman,Times New Roman_MSFontService,sans-serif" font-weight="400" font-size="24" transform="translate(887.898 309)">esting</text><path d="M203.5 225.667C203.5 222.261 206.261 219.5 209.667 219.5L297.333 219.5C300.739 219.5 303.5 222.261 303.5 225.667L303.5 250.333C303.5 253.739 300.739 256.5 297.333 256.5L209.667 256.5C206.261 256.5 203.5 253.739 203.5 250.333Z" stroke="#2F528F" stroke-width="1.33333" stroke-miterlimit="8" fill="#4472C4" fill-rule="evenodd"/><text fill="#FFFFFF" font-family="Times New Roman,Times New Roman_MSFontService,sans-serif" font-weight="400" font-size="24" transform="translate(219.867 246)">Source</text><rect x="345.5" y="215.5" width="138" height="45" stroke="#000000" stroke-width="3" stroke-miterlimit="8" fill="#548235"/><text fill="#FFFFFF" font-family="Times New Roman,Times New Roman_MSFontService,sans-serif" font-weight="400" font-size="24" transform="translate(365.935 246)">Regressor</text><path d="M203.5 330.667C203.5 327.261 206.261 324.5 209.667 324.5L297.333 324.5C300.739 324.5 303.5 327.261 303.5 330.667L303.5 355.333C303.5 358.739 300.739 361.5 297.333 361.5L209.667 361.5C206.261 361.5 203.5 358.739 203.5 355.333Z" stroke="#2F528F" stroke-width="1.33333" stroke-miterlimit="8" fill="#4472C4" fill-rule="evenodd"/><text fill="#FFFFFF" font-family="Times New Roman,Times New Roman_MSFontService,sans-serif" font-weight="400" font-size="24" transform="translate(222.92 351)">Target</text><path d="M303.5 236.833 339.132 236.833 339.132 238.167 303.5 238.167ZM337.799 233.5 345.799 237.5 337.799 241.5Z"/><path d="M1.65467e-06-0.666667 35.6324-0.666578 35.6324 0.666755-1.65467e-06 0.666667ZM34.2991-3.99991 42.2991 0.000104987 34.2991 4.00009Z" transform="matrix(1 0 0 -1 303.5 342.5)"/><path d="M415.167 260.5 415.167 312.553 413.833 312.553 413.833 260.5ZM418.5 311.219 414.5 319.219 410.5 311.219Z"/></g></svg>