<svg width="849" height="253" xmlns="http://www.w3.org/2000/svg" xmlns:xlink="http://www.w3.org/1999/xlink" overflow="hidden"><defs><clipPath id="clip0"><rect x="143" y="210" width="849" height="253"/></clipPath></defs><g clip-path="url(#clip0)" transform="translate(-143 -210)"><rect x="330.5" y="316.5" width="137" height="47" stroke="#000000" stroke-width="3" stroke-miterlimit="8" stroke-dasharray="24 9" fill="#548235"/><text fill="#FFFFFF" font-family="Times New Roman,Times New Roman_MSFontService,sans-serif" font-weight="400" font-size="24" transform="translate(350.861 348)">Regressor</text><rect x="634.5" y="316.5" width="137" height="47" stroke="#000000" stroke-width="3" stroke-miterlimit="8" fill="#548235"/><text fill="#FFFFFF" font-family="Times New Roman,Times New Roman_MSFontService,sans-serif" font-weight="400" font-size="24" transform="translate(654.137 348)">Optimizer</text><path d="M644.5 401.334C644.5 396.455 648.455 392.5 653.334 392.5L753.667 392.5C758.545 392.5 762.5 396.455 762.5 401.334L762.5 436.667C762.5 441.545 758.545 445.5 753.667 445.5L653.334 445.5C648.455 445.5 644.5 441.545 644.5 436.667Z" stroke="#2F528F" stroke-width="1.33333" stroke-miterlimit="8" fill="#4472C4" fill-rule="evenodd"/><text fill="#FFFFFF" font-family="Times New Roman,Times New Roman_MSFontService,sans-serif" font-weight="400" font-size="24" transform="translate(688.804 413)">Rx</text><text fill="#FFFFFF" font-family="Times New Roman,Times New Roman_MSFontService,sans-serif" font-weight="400" font-size="24" transform="translate(664.137 442)">position</text><path d="M495.5 339.5C495.5 325.141 520.348 313.5 551 313.5 581.652 313.5 606.5 325.141 606.5 339.5 606.5 353.859 581.652 365.5 551 365.5 520.348 365.5 495.5 353.859 495.5 339.5Z" stroke="#2F528F" stroke-width="1.33333" stroke-miterlimit="8" fill="#ED7D31" fill-rule="evenodd"/><text fill="#FFFFFF" font-family="Times New Roman,Times New Roman_MSFontService,sans-serif" font-weight="400" font-size="16" transform="translate(522.488 345)">Distance</text><path d="M0.00993323-0.666593 20.976-0.354166 20.9562 0.979019-0.00993323 0.666593ZM19.6925-3.707 27.632 0.411759 19.5733 4.29212Z" transform="matrix(1 0 0 -1 467.5 339.912)"/><path d="M842.5 340.5C842.5 326.141 868.468 314.5 900.5 314.5 932.533 314.5 958.5 326.141 958.5 340.5 958.5 354.859 932.533 366.5 900.5 366.5 868.468 366.5 842.5 354.859 842.5 340.5Z" stroke="#2F528F" stroke-width="1.33333" stroke-miterlimit="8" fill="#ED7D31" fill-rule="evenodd"/><text fill="#FFFFFF" font-family="Times New Roman,Times New Roman_MSFontService,sans-serif" font-weight="400" font-size="15" transform="translate(875.605 336)">Latitude</text><text fill="#FFFFFF" font-family="Times New Roman,Times New Roman_MSFontService,sans-serif" font-weight="400" font-size="15" transform="translate(869.858 354)">Longitude</text><path d="M606.508 338.833 627.997 339.095 627.98 340.429 606.492 340.167ZM626.704 335.746 634.655 339.843 626.606 343.745Z"/><path d="M0.666667-2.41461e-06 0.666748 22.3199-0.666586 22.3199-0.666667 2.41461e-06ZM4.00008 20.9865 0.000104987 28.9866-3.99992 20.9866Z" transform="matrix(1 0 0 -1 703.5 392.487)"/><path d="M771.502 339.833 835.342 340.02 835.338 341.353 771.498 341.167ZM834.019 336.682 842.007 340.706 833.995 344.682Z"/><text font-family="Times New Roman,Times New Roman_MSFontService,sans-serif" font-weight="400" font-size="24" transform="translate(780.689 267)">Offline t</text><text font-family="Times New Roman,Times New Roman_MSFontService,sans-serif" font-weight="400" font-size="24" transform="translate(862.256 267)">raining</text><path d="M0 0 799.203 3.89197" stroke="#000000" stroke-width="1.33333" stroke-miterlimit="8" stroke-dasharray="5.33333 4" fill="none" fill-rule="evenodd" transform="matrix(1 0 0 -1 143.5 281.392)"/><text font-family="Times New Roman,Times New Roman_MSFontService,sans-serif" font-weight="400" font-size="24" transform="translate(794.824 306)">Online</text><text font-family="Times New Roman,Times New Roman_MSFontService,sans-serif" font-weight="400" font-size="24" transform="translate(866.158 306)">t</text><text font-family="Times New Roman,Times New Roman_MSFontService,sans-serif" font-weight="400" font-size="24" transform="translate(872.824 306)">esting</text><path d="M188.5 222.667C188.5 219.261 191.261 216.5 194.667 216.5L282.333 216.5C285.739 216.5 288.5 219.261 288.5 222.667L288.5 247.333C288.5 250.739 285.739 253.5 282.333 253.5L194.667 253.5C191.261 253.5 188.5 250.739 188.5 247.333Z" stroke="#2F528F" stroke-width="1.33333" stroke-miterlimit="8" fill="#4472C4" fill-rule="evenodd"/><text fill="#FFFFFF" font-family="Times New Roman,Times New Roman_MSFontService,sans-serif" font-weight="400" font-size="24" transform="translate(204.793 243)">Source</text><rect x="330.5" y="212.5" width="137" height="45" stroke="#000000" stroke-width="3" stroke-miterlimit="8" fill="#548235"/><text fill="#FFFFFF" font-family="Times New Roman,Times New Roman_MSFontService,sans-serif" font-weight="400" font-size="24" transform="translate(350.861 243)">Regressor</text><path d="M188.5 327.667C188.5 324.261 191.261 321.5 194.667 321.5L282.333 321.5C285.739 321.5 288.5 324.261 288.5 327.667L288.5 352.333C288.5 355.739 285.739 358.5 282.333 358.5L194.667 358.5C191.261 358.5 188.5 355.739 188.5 352.333Z" stroke="#2F528F" stroke-width="1.33333" stroke-miterlimit="8" fill="#4472C4" fill-rule="evenodd"/><text fill="#FFFFFF" font-family="Times New Roman,Times New Roman_MSFontService,sans-serif" font-weight="400" font-size="24" transform="translate(207.847 348)">Target</text><path d="M288.5 234.833 324.132 234.833 324.132 236.167 288.5 236.167ZM322.799 231.5 330.799 235.5 322.799 239.5Z"/><path d="M1.65467e-06-0.666667 35.6324-0.666578 35.6324 0.666755-1.65467e-06 0.666667ZM34.2991-3.99991 42.2991 0.000104987 34.2991 4.00009Z" transform="matrix(1 0 0 -1 288.5 340.5)"/><path d="M400.167 257.5 400.167 309.553 398.833 309.553 398.833 257.5ZM403.5 308.219 399.5 316.219 395.5 308.219Z"/></g></svg>